<svg width="352.2" height="112.266" viewBox="0 0 203 64.708" xmlns="http://www.w3.org/2000/svg" xmlSpace="preserve"><path d="M172.908 17.723 169.4 23.17 156.385 3.323h3.507l9.508 14.77 1.938-3.139L161.738 0h-11.446L169.4 29.262 188.046 0h-3.97L173 17.54zm-20.677 43.57h-3.139l18.646-29.447L147.431.093h-3.97l20.308 31.846L143 64.708l10.985-.092 39.138-61.2h3.323L174.57 37.754l13.662 21.415h3.969l-13.754-21.415L202.538.093H191.37zm29.63-23.262 15.047 23.262h-10.523l-13.662-20.77-15.508 24.093h3.97l11.63-18 11.723 18H203l-18.83-29.262-.278-.461z" fill="#fe1817"/><path d="M41.667 14v12.8h-23.42c-3.214.272-5.665 3.05-5.665 6.318s2.45 5.937 5.664 6.318H33.17v4.248H18.246a10.65 10.65 0 0 1-9.858-10.62c0-5.447 4.194-10.077 9.64-10.512h19.39v-4.303H18.246v.054A14.823 14.823 0 0 0 4.248 33.118c0 7.898 6.21 14.38 13.998 14.815h19.172v-8.497h4.249v12.745h-23.42A19.063 19.063 0 0 1 0 33.118a19.033 19.033 0 0 1 18.246-19.063zM75 35.623 87.2 14h13.508v38.181H87.963v-14.27l-8.116 14.27h-9.749L57.734 30.504v-8.007l14.87 25.436h4.792l14.815-25.436v25.436h4.249V18.249H89.65l-14.76 25.49-14.542-25.49H53.54v29.684h4.194v-8.007l4.249 7.299v4.956H49.292v-38.18H62.8zM108.333 14h23.42C141.94 14.436 150 22.824 150 33.064c0 10.294-8.061 18.681-18.246 19.117h-23.42V22.497h23.42a10.65 10.65 0 0 1 9.858 10.621c0 5.447-4.194 10.13-9.64 10.566H116.83V30.286h4.248v9.15l10.676-.054c3.213-.273 5.664-3.05 5.664-6.264 0-2.778-1.743-5.065-4.194-5.991-.926-.382-1.47-.382-2.94-.382h-17.702v21.188h19.172a14.84 14.84 0 0 0 13.998-14.87c0-7.897-6.21-14.379-13.998-14.814h-23.42z"/></svg>
